<svg width="301" height="301" viewBox="0 0 301 301" fill="none" xmlns="http://www.w3.org/2000/svg">
<circle cx="150.5" cy="150.5" r="150.5" fill="#2A5DF8"/>
<path d="M84.3423 129.84L74.2712 131.464L66.4937 135.729C66.1983 135.781 65.4913 137.53 64.3728 140.977C63.9613 142.674 63.4281 144.545 62.7732 146.59C62.2168 148.618 61.785 149.912 61.4779 150.474L61.9874 173.231C61.7905 173.266 61.3963 175.062 60.8049 178.618C60.6077 180.379 60.3584 181.845 60.0571 183.015C59.7383 184.087 59.4833 184.944 59.292 185.587C59.4136 186.276 60.6791 187.983 63.0885 190.706L66.2692 188.012L70.6391 193.791L69.3699 197.823C69.7522 198.263 70.0765 198.663 70.3429 199.022C70.592 199.283 70.841 199.544 71.0901 199.804L71.6895 200.613C71.7416 200.908 72.4714 201.592 73.8789 202.663C75.2053 203.851 76.2132 204.384 76.9026 204.263C77.9859 204.072 78.739 203.736 79.1619 203.255C79.6834 202.757 80.0918 202.482 80.3872 202.43C80.6827 202.378 81.0621 202.514 81.5255 202.838C81.9715 203.064 82.3509 203.2 82.6637 203.247C87.3965 203.022 91.2519 201.276 94.2299 198.009C95.2784 197.621 96.6717 197.172 98.4096 196.663C100.148 196.153 101.494 195.154 102.451 193.665C102.827 193.497 103.267 193.115 103.771 192.519C104.275 191.922 104.82 191.267 105.405 190.555C105.973 189.744 106.59 188.925 107.256 188.096C107.923 187.268 108.656 186.529 109.455 185.881C109.895 185.498 110.333 185.675 110.767 186.411C111.3 187.129 111.746 187.355 112.105 187.089L113.895 188.601L112.712 196.578L107.88 201.999L100.294 205.622C97.9708 206.843 95.4594 208.149 92.7598 209.539C90.1586 210.912 88.2352 211.809 86.9897 212.232C85.9238 212.522 84.7854 212.976 83.5746 213.596C82.3465 214.117 81.1763 214.679 80.0639 215.281C78.9343 215.785 77.9523 216.263 77.1181 216.714C76.2665 217.068 75.7422 217.262 75.5452 217.296C71.803 217.956 69.1034 218.483 67.4466 218.877C65.7725 219.172 64.5414 219.389 63.7536 219.528L48.7396 212.123C48.2127 210.286 46.2145 207.592 42.7451 204.041C39.4436 200.866 37.7148 198.835 37.5585 197.949L36.7521 185.601C36.6829 183.481 36.5557 181.32 36.3707 179.119C36.1682 176.819 35.9513 174.725 35.7198 172.837C35.4884 170.948 35.2511 169.314 35.008 167.936C34.8634 166.54 34.765 165.694 34.7129 165.398C35.4313 164.866 36.3989 163.73 37.6156 161.993C38.815 160.156 39.7624 157.755 40.458 154.79C42.0171 149.235 42.1046 144.548 40.7206 140.73C41.1783 140.447 42.4963 139.859 44.6745 138.967C46.8527 138.075 49.0368 136.929 51.2267 135.527C53.4339 134.224 55.1343 133.213 56.3277 132.495C57.5211 131.777 58.2076 131.351 58.3872 131.218C58.4684 131.102 58.8362 130.885 59.4909 130.567C60.244 130.231 61.055 129.935 61.924 129.681C62.8741 129.31 63.7836 128.997 64.6525 128.743C65.5041 128.389 66.1269 128.178 66.5208 128.109L70.3188 122.869L83.5876 120.377L87.2022 121.873L87.1493 126.756L84.3423 129.84ZM190.957 144.093C191.548 145.715 191.956 147.166 192.182 148.447C192.39 149.628 192.549 150.819 192.659 152.018C192.85 153.101 193.091 154.176 193.38 155.242C193.751 156.192 194.336 157.206 195.135 158.283C195.007 158.712 194.654 159.587 194.074 160.907C193.576 162.112 193.283 163.332 193.196 164.565C193.19 165.683 193.19 166.547 193.196 167.155C193.202 167.763 193.173 168.174 193.109 168.389C193.439 168.534 193.755 168.884 194.056 169.44C194.241 169.915 194.256 170.573 194.099 171.413C193.925 172.154 193.508 173.243 192.847 174.68C191.491 177.356 190.863 179.548 190.961 181.257C191.042 182.868 190.865 184.168 190.43 185.159C190.268 185.39 189.68 185.799 188.666 186.384C187.751 186.951 186.656 187.652 185.381 188.486C184.089 189.221 182.815 190.055 181.558 190.988C180.301 191.92 179.339 192.801 178.672 193.629C177.05 194.22 175.643 194.874 174.449 195.592C173.256 196.31 171.741 196.933 169.904 197.46C168.201 198.166 166.466 198.98 164.699 199.901C162.915 200.723 161.924 201.152 161.727 201.186C157.099 202.002 154.367 202.636 153.533 203.088C152.797 203.522 151.888 203.835 150.805 204.026L136.502 201.522L128.709 193.605C128.292 191.241 127.847 189.289 127.372 187.748C126.978 186.091 126.579 184.689 126.173 183.542C125.751 182.297 125.395 181.141 125.105 180.075C124.816 179.009 124.598 177.778 124.454 176.382C124.697 176.034 125.019 175.267 125.419 174.079C125.801 172.793 126.158 171.36 126.488 169.778C126.917 168.18 127.288 166.54 127.601 164.86C128.013 163.163 128.27 161.747 128.375 160.611C128.763 158.208 129.007 156.134 129.106 154.39C129.187 152.548 129.205 150.92 129.159 149.507C129.86 148.875 130.404 148.221 130.792 147.543C131.181 146.865 131.586 146.286 132.009 145.805C135.63 142.73 138.788 140.193 141.481 138.195C144.158 136.098 146.742 134.627 149.233 133.782L153.612 132.705C154.122 132.717 154.583 132.737 154.994 132.766C155.405 132.795 155.817 132.824 156.228 132.853C156.854 132.946 157.421 132.998 157.931 133.01C158.423 132.923 158.719 132.871 158.817 132.854L162.579 136.912C162.735 137.798 162.669 138.572 162.379 139.232C162.072 139.794 162.527 140.069 163.743 140.058C165.075 140.127 165.8 140.203 165.915 140.284L165.941 140.432C167.517 140.154 169.081 139.523 170.634 138.538C172.169 137.455 173.774 136.766 175.448 136.471C175.842 136.401 176.566 136.477 177.62 136.697C178.657 136.819 179.761 137.03 180.931 137.332C182.101 137.633 183.173 137.952 184.146 138.288C185.2 138.508 185.941 138.682 186.37 138.809C186.434 140.321 186.665 141.347 187.065 141.886C187.464 142.424 187.937 142.798 188.481 143.007C189.008 143.117 189.486 143.236 189.915 143.363C190.424 143.375 190.772 143.618 190.957 144.093ZM171.027 185.686C172.331 184.441 173.203 181.038 173.644 175.476C173.928 172.482 174.195 170.251 174.444 168.786C174.775 167.204 174.827 165.774 174.601 164.493C174.219 162.327 173.029 159.896 171.031 157.203C169.965 155.766 169.14 154.54 168.555 153.527C167.97 152.513 167.484 151.482 167.096 150.433C166.238 150.178 165.691 149.665 165.454 148.895C165.297 148.008 164.747 147.192 163.803 146.444C162.679 145.83 162.036 145.639 161.874 145.87C161.712 146.102 161.532 146.235 161.335 146.27L160.006 146.505C159.218 146.643 158.161 146.982 156.834 147.521C155.606 148.042 154.693 148.914 154.097 150.136C153.141 151.624 152.289 152.841 151.541 153.785C150.875 154.613 150.51 155.135 150.446 155.349C149.792 157.394 149.192 159.175 148.647 160.693C148.085 162.112 147.627 163.259 147.274 164.133L146.491 167.47C146.161 169.051 146.262 171.064 146.794 173.509C147.061 173.868 147.414 174.72 147.854 176.064C148.277 177.309 147.929 178.792 146.811 180.512C146.567 180.86 146.376 181.503 146.237 182.441C146.08 183.281 146.048 184.252 146.141 185.352C146.234 186.453 146.523 187.519 147.01 188.55C147.594 189.564 148.498 190.369 149.72 190.966C151.273 191.708 152.874 192.441 154.525 193.165C156.159 193.791 157.172 194.069 157.566 194L159.191 193.713C159.782 193.609 160.35 193.661 160.894 193.87L171.027 185.686ZM218.698 178.651L235.096 173.17L250.364 165.604L253.111 158.723L250.366 152.657L245.691 148.607C244.487 148.109 243.241 147.669 241.955 147.286C240.75 146.788 239.531 146.495 238.297 146.408C237.144 146.205 235.986 146.257 234.821 146.564C233.738 146.755 232.716 147.291 231.754 148.171L228.53 151.481L215.253 147.882L208.816 137.289L209.296 117.555L214.503 107.346C214.92 107.984 215.554 108.126 216.406 107.772C217.257 107.419 218.074 106.869 218.856 106.122C219.638 105.375 220.255 104.555 220.707 103.663C221.142 102.672 221.151 101.859 220.734 101.221C222.321 100.434 224.155 99.6026 226.234 98.7282C228.297 97.7553 230.02 96.5883 231.405 95.2271L249.758 87.8786L252.808 87.0362L256.014 89.6695L254.77 96.4382L249.565 98.8792L242.605 100.868L232.785 108.235L228.908 115.621C227.593 117.376 227.092 119.139 227.404 120.912C227.798 122.569 228.563 124.313 229.698 126.143C231.18 128.217 232.229 129.556 232.843 130.158C233.538 130.645 234.372 131.056 235.345 131.392L244.581 132.81C245.705 133.424 246.704 133.908 247.579 134.262C248.535 134.499 249.563 134.572 250.664 134.479C251.764 134.387 253.308 134.216 255.295 133.967C257.381 133.701 260.016 133.389 263.203 133.03C264.384 134.548 265.679 135.843 267.086 136.915C268.476 137.888 269.887 139.264 271.317 141.043L275.444 147.169L273.617 162.723L270.749 167.188L265.36 178.953L261.667 179.604C260.386 179.83 258.819 180.157 256.966 180.585C255.193 180.898 253.076 181.271 250.614 181.705C248.152 182.14 246.028 182.768 244.244 183.59C242.46 184.412 240.881 185.249 239.508 186.101C238.118 186.854 236.916 187.522 235.902 188.107C234.888 188.692 233.929 189.014 233.026 189.071L227.421 188.384L218.818 191.424L214.596 185.619L214.831 181.77L218.698 178.651Z" fill="white"/>
<path d="M169.181 157.982C166.694 159.233 166.5 161.975 168.601 166.208C169.651 168.324 170.62 169.981 171.508 171.178L172.411 172.847L168.782 192.577L168.92 200.27L176.76 226.304L181.034 236.72L182.689 244.958L165.554 247.979L163.84 244.016L160.91 236.613L154.137 198.205C154.091 197.943 154.122 197.734 154.23 197.58C154.315 197.294 154.334 197.02 154.288 196.757C154.373 196.471 154.501 196.043 154.671 195.471C155.134 193.494 155.169 192.54 154.775 192.609C154.49 187.921 153.769 182.294 152.611 175.729C151.562 169.009 150.041 161.154 148.05 152.163C144.136 134.575 142.268 124.75 142.446 122.688C142.578 122.665 142.697 122.576 142.805 122.422L143.848 121.425C142.489 119.093 141.458 116.702 140.756 114.254C140.162 111.651 139.112 108.383 137.606 104.452C135.884 103.131 134.841 101.825 134.478 100.535C134.116 99.2453 133.776 98.0867 133.459 97.0593C133.676 96.7504 137.588 96.6699 145.196 96.8177C148.725 96.8722 151.444 96.9344 153.352 97.0042C155.237 96.9427 156.322 96.9544 156.608 97.0394L161.828 127.8L163.009 134.497C163.125 135.153 163.264 135.941 163.426 136.86C163.565 137.648 163.793 138.556 164.109 139.583C165.892 147.392 167.583 153.525 169.181 157.982Z" fill="white"/>
</svg>
